<svg width="512" height="512" viewBox="0 0 512 512" fill="none" xmlns="http://www.w3.org/2000/svg">
  <rect width="512" height="512" rx="102" fill="url(#paint0_linear)" />
  <path d="M161.333 344V170.133H207.733L257.333 281.067L306.933 170.133H353.333V344H315.467V227.733L270.667 330.133H244L199.2 227.733V344H161.333Z" fill="#646CFF"/>
  <path d="M353.333 170.133H380V196.8H353.333V170.133Z" fill="#646CFF"/>
  <path d="M133.333 266.667C133.333 251.939 145.272 240 160 240C174.728 240 186.667 251.939 186.667 266.667C186.667 281.394 174.728 293.333 160 293.333C145.272 293.333 133.333 281.394 133.333 266.667Z" fill="white"/>
  <defs>
    <linearGradient id="paint0_linear" x1="0" y1="0" x2="512" y2="512" gradientUnits="userSpaceOnUse">
      <stop stop-color="#000000"/>
      <stop offset="1" stop-color="#1A1A1A"/>
    </linearGradient>
  </defs>
</svg> 